<svg width="32" height="32" viewBox="0 0 32 32" fill="none" xmlns="http://www.w3.org/2000/svg">
<circle cx="16" cy="16" r="16" fill="#3D4244"/>
<path d="M18.664 7.176H19.744V15.576C19.744 17.112 19.368 18.528 18.616 19.824C17.864 21.104 16.84 22.12 15.544 22.872C14.264 23.624 12.864 24 11.344 24C11.344 23.616 11.344 23.24 11.344 22.872C11.344 22.6 11.432 22.368 11.608 22.176C11.784 21.968 12 21.848 12.256 21.816C12.32 21.816 12.376 21.808 12.424 21.792C12.84 21.728 13.24 21.616 13.624 21.456C14.392 21.152 15.072 20.712 15.664 20.136C16.256 19.56 16.72 18.88 17.056 18.096C17.392 17.296 17.56 16.456 17.56 15.576V8.256C17.56 7.952 17.664 7.696 17.872 7.488C18.096 7.28 18.36 7.176 18.664 7.176Z" fill="white"/>
</svg>
